<svg xmlns="http://www.w3.org/2000/svg" xmlns:xlink="http://www.w3.org/1999/xlink" viewBox="0 0 88.61 89.21"><defs><style>.cls-1{mask:url(#mask);}.cls-2,.cls-4,.cls-6,.cls-8{mix-blend-mode:multiply;}.cls-2{fill:url(#New_Gradient_Swatch_copy_28);}.cls-3{mask:url(#mask-2);}.cls-4{fill:url(#New_Gradient_Swatch_copy_27);}.cls-5{mask:url(#mask-3);}.cls-6{fill:url(#New_Gradient_Swatch_copy_28-2);}.cls-7{mask:url(#mask-4);}.cls-8{fill:url(#New_Gradient_Swatch_copy_27-2);}.cls-9{isolation:isolate;}.cls-10{fill:url(#_3);}.cls-11{fill:url(#linear-gradient);}.cls-12{fill:#fff;}.cls-13{fill:url(#_3-2);}.cls-14{fill:url(#linear-gradient-2);}.cls-15{mask:url(#mask-5);}.cls-16,.cls-21{mix-blend-mode:soft-light;}.cls-16{fill:url(#New_Gradient_Swatch_copy_4);}.cls-17{fill:url(#_6);}.cls-18{mask:url(#mask-6);}.cls-19{opacity:0.6;mix-blend-mode:hard-light;fill:url(#New_Gradient_Swatch_copy_3);}.cls-20{mask:url(#mask-7);}.cls-21{fill:url(#New_Gradient_Swatch_copy_4-2);}.cls-22{mask:url(#mask-8);}.cls-23{mix-blend-mode:overlay;fill:url(#New_Gradient_Swatch_copy_3-2);}.cls-24{filter:url(#luminosity-noclip-8);}.cls-25{filter:url(#luminosity-noclip-7);}.cls-26{filter:url(#luminosity-noclip-6);}.cls-27{filter:url(#luminosity-noclip-5);}.cls-28{filter:url(#luminosity-noclip-4);}.cls-29{filter:url(#luminosity-noclip-3);}.cls-30{filter:url(#luminosity-noclip-2);}.cls-31{filter:url(#luminosity-noclip);}</style><filter id="luminosity-noclip" x="1010.75" y="-9192" width="55.6" height="32766" filterUnits="userSpaceOnUse" color-interpolation-filters="sRGB"><feFlood flood-color="#fff" result="bg"/><feBlend in="SourceGraphic" in2="bg"/></filter><mask id="mask" x="1010.75" y="-9192" width="55.6" height="32766" maskUnits="userSpaceOnUse"><g class="cls-31"/></mask><linearGradient id="New_Gradient_Swatch_copy_28" x1="990.74" y1="1229.12" x2="1068.86" y2="1239.7" gradientUnits="userSpaceOnUse"><stop offset="0" stop-color="#fff"/><stop offset="1"/></linearGradient><filter id="luminosity-noclip-2" x="1045.18" y="-9192" width="22.54" height="32766" filterUnits="userSpaceOnUse" color-interpolation-filters="sRGB"><feFlood flood-color="#fff" result="bg"/><feBlend in="SourceGraphic" in2="bg"/></filter><mask id="mask-2" x="1045.18" y="-9192" width="22.54" height="32766" maskUnits="userSpaceOnUse"><g class="cls-30"/></mask><linearGradient id="New_Gradient_Swatch_copy_27" x1="1062.5" y1="1301.33" x2="1052.92" y2="1263.02" gradientUnits="userSpaceOnUse"><stop offset="0" stop-color="#fff"/><stop offset="0.08" stop-color="#f6f6f6"/><stop offset="0.23" stop-color="#ddd"/><stop offset="0.4" stop-color="#b4b4b4"/><stop offset="0.61" stop-color="#7b7b7b"/><stop offset="0.85" stop-color="#333"/><stop offset="1"/></linearGradient><filter id="luminosity-noclip-3" x="1006.8" y="-9192" width="60.27" height="32766" filterUnits="userSpaceOnUse" color-interpolation-filters="sRGB"><feFlood flood-color="#fff" result="bg"/><feBlend in="SourceGraphic" in2="bg"/></filter><mask id="mask-3" x="1006.8" y="-9192" width="60.27" height="32766" maskUnits="userSpaceOnUse"><g class="cls-29"/></mask><linearGradient id="New_Gradient_Swatch_copy_28-2" x1="1077.24" y1="1299.16" x2="1018.77" y2="1255.98" xlink:href="#New_Gradient_Swatch_copy_28"/><filter id="luminosity-noclip-4" x="1045.18" y="-9192" width="33.01" height="32766" filterUnits="userSpaceOnUse" color-interpolation-filters="sRGB"><feFlood flood-color="#fff" result="bg"/><feBlend in="SourceGraphic" in2="bg"/></filter><mask id="mask-4" x="1045.18" y="-9192" width="33.01" height="32766" maskUnits="userSpaceOnUse"><g class="cls-28"/></mask><linearGradient id="New_Gradient_Swatch_copy_27-2" x1="1084" y1="1194.5" x2="1053.76" y2="1284.89" xlink:href="#New_Gradient_Swatch_copy_27"/><linearGradient id="_3" x1="983.74" y1="1245.74" x2="1075.98" y2="1230.96" gradientUnits="userSpaceOnUse"><stop offset="0" stop-color="#1ec9fb"/><stop offset="1" stop-color="#1b43c1"/></linearGradient><linearGradient id="linear-gradient" x1="1072.48" y1="1221.82" x2="1033.41" y2="1266.68" gradientUnits="userSpaceOnUse"><stop offset="0" stop-color="#2947d4"/><stop offset="1" stop-color="#822b87"/></linearGradient><linearGradient id="_3-2" x1="1104.42" y1="1192.88" x2="1073.8" y2="1225.64" xlink:href="#_3"/><linearGradient id="linear-gradient-2" x1="62.91" y1="48.37" x2="-23.66" y2="54.42" gradientUnits="userSpaceOnUse"><stop offset="0" stop-color="#fff"/><stop offset="1" stop-color="#c072ba"/></linearGradient><filter id="luminosity-noclip-5" x="1010.75" y="1217.71" width="55.6" height="37.42" filterUnits="userSpaceOnUse" color-interpolation-filters="sRGB"><feFlood flood-color="#fff" result="bg"/><feBlend in="SourceGraphic" in2="bg"/></filter><mask id="mask-5" x="4.13" y="15.71" width="55.6" height="37.42" maskUnits="userSpaceOnUse"><g class="cls-27"><g transform="translate(-1006.62 -1202)"><g class="cls-1"><path class="cls-2" d="M1066.34,1225.77a36.76,36.76,0,0,0-55.6,11.76l32.63,17.6h0c-14.8-15.94-4.18-32.29,12.73-31.25A42,42,0,0,1,1066.34,1225.77Z"/></g></g></g></mask><linearGradient id="New_Gradient_Swatch_copy_4" x1="990.74" y1="1229.12" x2="1068.86" y2="1239.7" gradientUnits="userSpaceOnUse"><stop offset="0" stop-color="#eeefef"/><stop offset="1" stop-color="#eeefef"/></linearGradient><linearGradient id="_6" x1="1054.09" y1="1294.44" x2="990.83" y2="1225.39" gradientUnits="userSpaceOnUse"><stop offset="0" stop-color="#ea3585"/><stop offset="1" stop-color="#2947d4"/></linearGradient><filter id="luminosity-noclip-6" x="1045.18" y="1269.8" width="22.54" height="14.59" filterUnits="userSpaceOnUse" color-interpolation-filters="sRGB"><feFlood flood-color="#fff" result="bg"/><feBlend in="SourceGraphic" in2="bg"/></filter><mask id="mask-6" x="38.56" y="67.8" width="22.54" height="14.59" maskUnits="userSpaceOnUse"><g class="cls-26"><g transform="translate(-1006.62 -1202)"><g class="cls-3"><path class="cls-4" d="M1067.07,1282.54l.64-.55c-7.66,3.22-11.59-2.79-20-11.23l-.95-1-1.64,2.47C1054.22,1281.39,1058.08,1287.7,1067.07,1282.54Z"/></g></g></g></mask><linearGradient id="New_Gradient_Swatch_copy_3" x1="1062.5" y1="1301.33" x2="1052.92" y2="1263.02" gradientUnits="userSpaceOnUse"><stop offset="0" stop-color="#231f20"/><stop offset="1" stop-color="#231f20"/></linearGradient><filter id="luminosity-noclip-7" x="1006.8" y="1237.53" width="60.27" height="50.76" filterUnits="userSpaceOnUse" color-interpolation-filters="sRGB"><feFlood flood-color="#fff" result="bg"/><feBlend in="SourceGraphic" in2="bg"/></filter><mask id="mask-7" x="0.19" y="35.53" width="60.27" height="50.76" maskUnits="userSpaceOnUse"><g class="cls-25"><g transform="translate(-1006.62 -1202)"><g class="cls-5"><path class="cls-6" d="M1067.07,1282.54c-9,5.16-12.85-1.14-21.9-10.27l-34.43-34.74a36.51,36.51,0,0,0-3.94,13.24l33.11,33.11C1047.39,1291.36,1058,1288.25,1067.07,1282.54Z"/></g></g></g></mask><linearGradient id="New_Gradient_Swatch_copy_4-2" x1="1077.24" y1="1299.16" x2="1018.77" y2="1255.98" xlink:href="#New_Gradient_Swatch_copy_4"/><filter id="luminosity-noclip-8" x="1045.18" y="1222.03" width="33.01" height="62.36" filterUnits="userSpaceOnUse" color-interpolation-filters="sRGB"><feFlood flood-color="#fff" result="bg"/><feBlend in="SourceGraphic" in2="bg"/></filter><mask id="mask-8" x="38.56" y="20.03" width="33.01" height="62.36" maskUnits="userSpaceOnUse"><g class="cls-24"><g transform="translate(-1006.62 -1202)"><g class="cls-7"><path class="cls-8" d="M1072.14,1231.58l-27,40.68c9.06,9.14,12.91,15.44,21.92,10.25l.36-.31c-12.15-7.63-3.37-27.12,1.82-39.34l4.1-9.61,4.8-11.22Z"/></g></g></g></mask><linearGradient id="New_Gradient_Swatch_copy_3-2" x1="1084" y1="1194.5" x2="1053.76" y2="1284.89" xlink:href="#New_Gradient_Swatch_copy_3"/></defs><title>logo-mini</title><g class="cls-9"><g id="Logo"><path class="cls-10" d="M1076.34,1220.69l-7.23,7.55-25.75,26.89-32.63-17.6a36.76,36.76,0,0,1,55.6-11.76l-3.69,4.66,5-3.56Z" transform="translate(-1006.62 -1202)"/><path class="cls-11" d="M1080.12,1254.46a36.75,36.75,0,1,1-69.38-16.93l34.43,34.74,27-40.68,6.05-9.55-4.8,11.22-4.1,9.61,5.32-7.79A36.56,36.56,0,0,1,1080.12,1254.46Z" transform="translate(-1006.62 -1202)"/><path class="cls-12" d="M1072.14,1231.58l-27,40.68-34.43-34.74,32.63,17.6,25.75-26.89A35.44,35.44,0,0,1,1072.14,1231.58Z" transform="translate(-1006.62 -1202)"/><path class="cls-13" d="M1083,1214.86l-3.4,10.24a29.58,29.58,0,0,1,4.14,8.31l11.45-31.41L1065,1216.59a29.75,29.75,0,0,1,8,2.84Z" transform="translate(-1006.62 -1202)"/><polygon class="cls-14" points="64.59 30.98 64.26 28.09 64.26 28.09 37.45 60.96 4.13 35.53 38.56 70.27 64.59 30.98"/><g class="cls-15"><path class="cls-16" d="M1066.34,1225.77a36.76,36.76,0,0,0-55.6,11.76l32.63,17.6h0c-14.8-15.94-4.18-32.29,12.73-31.25A42,42,0,0,1,1066.34,1225.77Z" transform="translate(-1006.62 -1202)"/></g><path class="cls-17" d="M1006.62,1254.46a36.75,36.75,0,0,0,60.48,28.06c-9,5.19-12.87-1.12-21.92-10.25l-34.43-34.74A36.58,36.58,0,0,0,1006.62,1254.46Z" transform="translate(-1006.62 -1202)"/><g class="cls-18"><path class="cls-19" d="M1067.07,1282.54l.64-.55c-7.66,3.22-11.59-2.79-20-11.23l-.95-1-1.64,2.47C1054.22,1281.39,1058.08,1287.7,1067.07,1282.54Z" transform="translate(-1006.62 -1202)"/></g><g class="cls-20"><path class="cls-21" d="M1067.07,1282.54c-9,5.16-12.85-1.14-21.9-10.27l-34.43-34.74a36.51,36.51,0,0,0-3.94,13.24l33.11,33.11C1047.39,1291.36,1058,1288.25,1067.07,1282.54Z" transform="translate(-1006.62 -1202)"/></g><g class="cls-22"><path class="cls-23" d="M1072.14,1231.58l-27,40.68c9.06,9.14,12.91,15.44,21.92,10.25l.36-.31c-12.15-7.63-3.37-27.12,1.82-39.34l4.1-9.61,4.8-11.22Z" transform="translate(-1006.62 -1202)"/></g></g></g></svg>