<svg xmlns="http://www.w3.org/2000/svg" xmlns:xlink="http://www.w3.org/1999/xlink" viewBox="0 0 313.89 94.97"><defs><style>.cls-1{mask:url(#mask);}.cls-2,.cls-4,.cls-6,.cls-8{mix-blend-mode:multiply;}.cls-2{fill:url(#New_Gradient_Swatch_copy_28);}.cls-3{mask:url(#mask-2);}.cls-4{fill:url(#New_Gradient_Swatch_copy_27);}.cls-5{mask:url(#mask-3);}.cls-6{fill:url(#New_Gradient_Swatch_copy_28-2);}.cls-7{mask:url(#mask-4);}.cls-8{fill:url(#New_Gradient_Swatch_copy_27-2);}.cls-9{isolation:isolate;}.cls-10{fill:url(#_3);}.cls-11{fill:url(#linear-gradient);}.cls-12{fill:#fff;}.cls-13{fill:url(#_3-2);}.cls-14{fill:url(#linear-gradient-2);}.cls-15{mask:url(#mask-5);}.cls-16,.cls-21{mix-blend-mode:soft-light;}.cls-16{fill:url(#New_Gradient_Swatch_copy_4);}.cls-17{fill:url(#_6);}.cls-18{mask:url(#mask-6);}.cls-19{opacity:0.6;mix-blend-mode:hard-light;fill:url(#New_Gradient_Swatch_copy_3);}.cls-20{mask:url(#mask-7);}.cls-21{fill:url(#New_Gradient_Swatch_copy_4-2);}.cls-22{mask:url(#mask-8);}.cls-23{mix-blend-mode:overlay;fill:url(#New_Gradient_Swatch_copy_3-2);}.cls-24{fill:url(#_6-2);}.cls-25{filter:url(#luminosity-noclip-8);}.cls-26{filter:url(#luminosity-noclip-7);}.cls-27{filter:url(#luminosity-noclip-6);}.cls-28{filter:url(#luminosity-noclip-5);}.cls-29{filter:url(#luminosity-noclip-4);}.cls-30{filter:url(#luminosity-noclip-3);}.cls-31{filter:url(#luminosity-noclip-2);}.cls-32{filter:url(#luminosity-noclip);}</style><filter id="luminosity-noclip" x="1010.75" y="-9192" width="55.6" height="32766" filterUnits="userSpaceOnUse" color-interpolation-filters="sRGB"><feFlood flood-color="#fff" result="bg"/><feBlend in="SourceGraphic" in2="bg"/></filter><mask id="mask" x="1010.75" y="-9192" width="55.6" height="32766" maskUnits="userSpaceOnUse"><g class="cls-32"/></mask><linearGradient id="New_Gradient_Swatch_copy_28" x1="990.74" y1="1229.12" x2="1068.86" y2="1239.7" gradientUnits="userSpaceOnUse"><stop offset="0" stop-color="#fff"/><stop offset="1"/></linearGradient><filter id="luminosity-noclip-2" x="1045.18" y="-9192" width="22.54" height="32766" filterUnits="userSpaceOnUse" color-interpolation-filters="sRGB"><feFlood flood-color="#fff" result="bg"/><feBlend in="SourceGraphic" in2="bg"/></filter><mask id="mask-2" x="1045.18" y="-9192" width="22.54" height="32766" maskUnits="userSpaceOnUse"><g class="cls-31"/></mask><linearGradient id="New_Gradient_Swatch_copy_27" x1="1062.5" y1="1301.33" x2="1052.92" y2="1263.02" gradientUnits="userSpaceOnUse"><stop offset="0" stop-color="#fff"/><stop offset="0.08" stop-color="#f6f6f6"/><stop offset="0.23" stop-color="#ddd"/><stop offset="0.4" stop-color="#b4b4b4"/><stop offset="0.61" stop-color="#7b7b7b"/><stop offset="0.85" stop-color="#333"/><stop offset="1"/></linearGradient><filter id="luminosity-noclip-3" x="1006.8" y="-9192" width="60.27" height="32766" filterUnits="userSpaceOnUse" color-interpolation-filters="sRGB"><feFlood flood-color="#fff" result="bg"/><feBlend in="SourceGraphic" in2="bg"/></filter><mask id="mask-3" x="1006.8" y="-9192" width="60.27" height="32766" maskUnits="userSpaceOnUse"><g class="cls-30"/></mask><linearGradient id="New_Gradient_Swatch_copy_28-2" x1="1077.24" y1="1299.16" x2="1018.77" y2="1255.98" xlink:href="#New_Gradient_Swatch_copy_28"/><filter id="luminosity-noclip-4" x="1045.18" y="-9192" width="33.01" height="32766" filterUnits="userSpaceOnUse" color-interpolation-filters="sRGB"><feFlood flood-color="#fff" result="bg"/><feBlend in="SourceGraphic" in2="bg"/></filter><mask id="mask-4" x="1045.18" y="-9192" width="33.01" height="32766" maskUnits="userSpaceOnUse"><g class="cls-29"/></mask><linearGradient id="New_Gradient_Swatch_copy_27-2" x1="1084" y1="1194.5" x2="1053.76" y2="1284.89" xlink:href="#New_Gradient_Swatch_copy_27"/><linearGradient id="_3" x1="983.74" y1="1245.74" x2="1075.98" y2="1230.96" gradientUnits="userSpaceOnUse"><stop offset="0" stop-color="#1ec9fb"/><stop offset="1" stop-color="#1b43c1"/></linearGradient><linearGradient id="linear-gradient" x1="1072.48" y1="1221.82" x2="1033.41" y2="1266.68" gradientUnits="userSpaceOnUse"><stop offset="0" stop-color="#2947d4"/><stop offset="1" stop-color="#822b87"/></linearGradient><linearGradient id="_3-2" x1="1104.42" y1="1192.88" x2="1073.8" y2="1225.64" xlink:href="#_3"/><linearGradient id="linear-gradient-2" x1="62.91" y1="48.37" x2="-23.66" y2="54.42" gradientUnits="userSpaceOnUse"><stop offset="0" stop-color="#fff"/><stop offset="1" stop-color="#c072ba"/></linearGradient><filter id="luminosity-noclip-5" x="1010.75" y="1217.71" width="55.6" height="37.42" filterUnits="userSpaceOnUse" color-interpolation-filters="sRGB"><feFlood flood-color="#fff" result="bg"/><feBlend in="SourceGraphic" in2="bg"/></filter><mask id="mask-5" x="4.13" y="15.71" width="55.6" height="37.42" maskUnits="userSpaceOnUse"><g class="cls-28"><g transform="translate(-1006.62 -1202)"><g class="cls-1"><path class="cls-2" d="M1066.34,1225.77a36.76,36.76,0,0,0-55.6,11.76l32.63,17.6h0c-14.8-15.94-4.18-32.29,12.73-31.25A42,42,0,0,1,1066.34,1225.77Z"/></g></g></g></mask><linearGradient id="New_Gradient_Swatch_copy_4" x1="990.74" y1="1229.12" x2="1068.86" y2="1239.7" gradientUnits="userSpaceOnUse"><stop offset="0" stop-color="#eeefef"/><stop offset="1" stop-color="#eeefef"/></linearGradient><linearGradient id="_6" x1="1054.09" y1="1294.44" x2="990.83" y2="1225.39" gradientUnits="userSpaceOnUse"><stop offset="0" stop-color="#ea3585"/><stop offset="1" stop-color="#2947d4"/></linearGradient><filter id="luminosity-noclip-6" x="1045.18" y="1269.8" width="22.54" height="14.59" filterUnits="userSpaceOnUse" color-interpolation-filters="sRGB"><feFlood flood-color="#fff" result="bg"/><feBlend in="SourceGraphic" in2="bg"/></filter><mask id="mask-6" x="38.56" y="67.8" width="22.54" height="14.59" maskUnits="userSpaceOnUse"><g class="cls-27"><g transform="translate(-1006.62 -1202)"><g class="cls-3"><path class="cls-4" d="M1067.07,1282.54l.64-.55c-7.66,3.22-11.59-2.79-20-11.23l-.95-1-1.64,2.47C1054.22,1281.39,1058.08,1287.7,1067.07,1282.54Z"/></g></g></g></mask><linearGradient id="New_Gradient_Swatch_copy_3" x1="1062.5" y1="1301.33" x2="1052.92" y2="1263.02" gradientUnits="userSpaceOnUse"><stop offset="0" stop-color="#231f20"/><stop offset="1" stop-color="#231f20"/></linearGradient><filter id="luminosity-noclip-7" x="1006.8" y="1237.53" width="60.27" height="50.76" filterUnits="userSpaceOnUse" color-interpolation-filters="sRGB"><feFlood flood-color="#fff" result="bg"/><feBlend in="SourceGraphic" in2="bg"/></filter><mask id="mask-7" x="0.19" y="35.53" width="60.27" height="50.76" maskUnits="userSpaceOnUse"><g class="cls-26"><g transform="translate(-1006.62 -1202)"><g class="cls-5"><path class="cls-6" d="M1067.07,1282.54c-9,5.16-12.85-1.14-21.9-10.27l-34.43-34.74a36.51,36.51,0,0,0-3.94,13.24l33.11,33.11C1047.39,1291.36,1058,1288.25,1067.07,1282.54Z"/></g></g></g></mask><linearGradient id="New_Gradient_Swatch_copy_4-2" x1="1077.24" y1="1299.16" x2="1018.77" y2="1255.98" xlink:href="#New_Gradient_Swatch_copy_4"/><filter id="luminosity-noclip-8" x="1045.18" y="1222.03" width="33.01" height="62.36" filterUnits="userSpaceOnUse" color-interpolation-filters="sRGB"><feFlood flood-color="#fff" result="bg"/><feBlend in="SourceGraphic" in2="bg"/></filter><mask id="mask-8" x="38.56" y="20.03" width="33.01" height="62.36" maskUnits="userSpaceOnUse"><g class="cls-25"><g transform="translate(-1006.62 -1202)"><g class="cls-7"><path class="cls-8" d="M1072.14,1231.58l-27,40.68c9.06,9.14,12.91,15.44,21.92,10.25l.36-.31c-12.15-7.63-3.37-27.12,1.82-39.34l4.1-9.61,4.8-11.22Z"/></g></g></g></mask><linearGradient id="New_Gradient_Swatch_copy_3-2" x1="1084" y1="1194.5" x2="1053.76" y2="1284.89" xlink:href="#New_Gradient_Swatch_copy_3"/><linearGradient id="_6-2" x1="1090.37" y1="1264.1" x2="1320.5" y2="1264.1" xlink:href="#_6"/></defs><title>logo2</title><g class="cls-9"><g id="Logo"><path class="cls-10" d="M1076.34,1220.69l-7.23,7.55-25.75,26.89-32.63-17.6a36.76,36.76,0,0,1,55.6-11.76l-3.69,4.66,5-3.56Z" transform="translate(-1006.62 -1202)"/><path class="cls-11" d="M1080.12,1254.46a36.75,36.75,0,1,1-69.38-16.93l34.43,34.74,27-40.68,6.05-9.55-4.8,11.22-4.1,9.61,5.32-7.79A36.56,36.56,0,0,1,1080.12,1254.46Z" transform="translate(-1006.62 -1202)"/><path class="cls-12" d="M1072.14,1231.58l-27,40.68-34.43-34.74,32.63,17.6,25.75-26.89A35.44,35.44,0,0,1,1072.14,1231.58Z" transform="translate(-1006.62 -1202)"/><path class="cls-13" d="M1083,1214.86l-3.4,10.24a29.58,29.58,0,0,1,4.14,8.31l11.45-31.41L1065,1216.59a29.75,29.75,0,0,1,8,2.84Z" transform="translate(-1006.62 -1202)"/><polygon class="cls-14" points="64.59 30.98 64.26 28.09 64.26 28.09 37.45 60.96 4.13 35.53 38.56 70.27 64.59 30.98"/><g class="cls-15"><path class="cls-16" d="M1066.34,1225.77a36.76,36.76,0,0,0-55.6,11.76l32.63,17.6h0c-14.8-15.94-4.18-32.29,12.73-31.25A42,42,0,0,1,1066.34,1225.77Z" transform="translate(-1006.62 -1202)"/></g><path class="cls-17" d="M1006.62,1254.46a36.75,36.75,0,0,0,60.48,28.06c-9,5.19-12.87-1.12-21.92-10.25l-34.43-34.74A36.58,36.58,0,0,0,1006.62,1254.46Z" transform="translate(-1006.62 -1202)"/><g class="cls-18"><path class="cls-19" d="M1067.07,1282.54l.64-.55c-7.66,3.22-11.59-2.79-20-11.23l-.95-1-1.64,2.47C1054.22,1281.39,1058.08,1287.7,1067.07,1282.54Z" transform="translate(-1006.62 -1202)"/></g><g class="cls-20"><path class="cls-21" d="M1067.07,1282.54c-9,5.16-12.85-1.14-21.9-10.27l-34.43-34.74a36.51,36.51,0,0,0-3.94,13.24l33.11,33.11C1047.39,1291.36,1058,1288.25,1067.07,1282.54Z" transform="translate(-1006.62 -1202)"/></g><g class="cls-22"><path class="cls-23" d="M1072.14,1231.58l-27,40.68c9.06,9.14,12.91,15.44,21.92,10.25l.36-.31c-12.15-7.63-3.37-27.12,1.82-39.34l4.1-9.61,4.8-11.22Z" transform="translate(-1006.62 -1202)"/></g><path class="cls-24" d="M1110.62,1286.07a14.78,14.78,0,0,1-7.17-1.63,11.15,11.15,0,0,1-4.63-4.74,16.16,16.16,0,0,1-1.63-7.58v-18.66h-6.83v-8.57h6.83v-13.65h10.62v13.65h10.92v8.57h-10.92v17.37a7.07,7.07,0,0,0,1.21,4.44,4.42,4.42,0,0,0,3.72,1.55,11.13,11.13,0,0,0,2.77-.38,17.83,17.83,0,0,0,2.84-1l1.9,8a18.25,18.25,0,0,1-9.63,2.65Z" transform="translate(-1006.62 -1202)"/><path class="cls-24" d="M1139.56,1285.82a14.69,14.69,0,0,1-7.4-1.8,12.33,12.33,0,0,1-4.9-5.13,16.79,16.79,0,0,1-1.74-7.87v-17.22h8.26v17.4a8,8,0,0,0,1.59,5.28,5.79,5.79,0,0,0,8.61,0,8,8,0,0,0,1.59-5.28v-17.4h8.26V1271a17.42,17.42,0,0,1-1,6.08,13.16,13.16,0,0,1-2.89,4.66,13,13,0,0,1-4.51,3A15.52,15.52,0,0,1,1139.56,1285.82Z" transform="translate(-1006.62 -1202)"/><path class="cls-24" d="M1160.44,1284.94v-31.14H1168l.24,4a9.91,9.91,0,0,1,3.75-3.57,11.87,11.87,0,0,1,11.44.29,10.71,10.71,0,0,1,4,4.63,16.47,16.47,0,0,1,1.42,7.08v18.7h-8.26V1267.3a8,8,0,0,0-1.47-5.1,4.91,4.91,0,0,0-4.07-1.86,6.27,6.27,0,0,0-3.3.85,6.11,6.11,0,0,0-2.24,2.39,7.22,7.22,0,0,0-.83,3.48v17.87Z" transform="translate(-1006.62 -1202)"/><path class="cls-24" d="M1210.21,1285.82a16.57,16.57,0,0,1-6.4-1.21,14.69,14.69,0,0,1-5-3.42,15.67,15.67,0,0,1-3.3-5.25,18.16,18.16,0,0,1-1.18-6.64,17.6,17.6,0,0,1,1.18-6.49,16,16,0,0,1,3.27-5.22,15,15,0,0,1,4.92-3.45,15.14,15.14,0,0,1,6.13-1.24,15.89,15.89,0,0,1,6.22,1.18,13.64,13.64,0,0,1,4.81,3.36,15.29,15.29,0,0,1,3.1,5.19,19.61,19.61,0,0,1,1.09,6.72v2.06h-22.35a9.39,9.39,0,0,0,2.54,5.46,6.92,6.92,0,0,0,5.07,2,7.59,7.59,0,0,0,3.86-1A7.91,7.91,0,0,0,1217,1275l7.37,2.36a11.91,11.91,0,0,1-3.19,4.54,15.18,15.18,0,0,1-5,2.92A17.44,17.44,0,0,1,1210.21,1285.82Zm-.41-26.54a6.37,6.37,0,0,0-4.57,1.77,8.74,8.74,0,0,0-2.45,4.84h13.74a8.35,8.35,0,0,0-2.27-4.84A6.1,6.1,0,0,0,1209.8,1259.28Z" transform="translate(-1006.62 -1202)"/><path class="cls-24" d="M1239.76,1285.82a13.21,13.21,0,0,1-4.42-.71,10.55,10.55,0,0,1-3.51-2,9.39,9.39,0,0,1-2.33-3.1,9.09,9.09,0,0,1-.83-3.89,8.74,8.74,0,0,1,1.59-5.19,10.53,10.53,0,0,1,4.48-3.51,16.6,16.6,0,0,1,6.72-1.27,18.44,18.44,0,0,1,3.69.35,20.4,20.4,0,0,1,3.39,1v-1.83a6.15,6.15,0,0,0-1.5-4.31,5.27,5.27,0,0,0-4.1-1.65,6.65,6.65,0,0,0-3.54,1,5.23,5.23,0,0,0-2.24,2.74l-7.37-1.47a10.31,10.31,0,0,1,2.57-4.75A13.07,13.07,0,0,1,1237,1254a15.92,15.92,0,0,1,6-1.12,15.32,15.32,0,0,1,5.48.94,12.14,12.14,0,0,1,7,6.87,14,14,0,0,1,1,5.34v18.87h-7.37l-.24-3.66a9.25,9.25,0,0,1-3.6,3.27A11.67,11.67,0,0,1,1239.76,1285.82Zm-2.95-10.14a3.3,3.3,0,0,0,1.36,2.71,5.67,5.67,0,0,0,3.6,1.06,7.22,7.22,0,0,0,3.48-.83,6.25,6.25,0,0,0,2.42-2.27,6,6,0,0,0,.88-3.21v-.29a17,17,0,0,0-2.77-.86,13.78,13.78,0,0,0-2.95-.32,7.77,7.77,0,0,0-4.39,1.09A3.36,3.36,0,0,0,1236.81,1275.68Z" transform="translate(-1006.62 -1202)"/><path class="cls-24" d="M1274.38,1285.82a16.14,16.14,0,0,1-6-1.06,12.58,12.58,0,0,1-4.54-3,10.45,10.45,0,0,1-2.57-4.6l7.43-1.59a5.44,5.44,0,0,0,2.12,2.89,6.27,6.27,0,0,0,3.66,1.06,5.74,5.74,0,0,0,3.3-.88,2.78,2.78,0,0,0,1.3-2.42,2.59,2.59,0,0,0-1.15-2.15,9.36,9.36,0,0,0-3.8-1.33l-1.65-.29a14.92,14.92,0,0,1-7.7-3.3,8,8,0,0,1-2.62-6.13,9.1,9.1,0,0,1,1.53-5.22,10.41,10.41,0,0,1,4.25-3.57,14.32,14.32,0,0,1,6.25-1.3,15.13,15.13,0,0,1,5.69,1,11.44,11.44,0,0,1,4.28,2.92,10.28,10.28,0,0,1,2.36,4.54l-7.37,1.53a5.58,5.58,0,0,0-1.92-2.77,5,5,0,0,0-3.1-1,4.87,4.87,0,0,0-3,.88,2.69,2.69,0,0,0-1.18,2.24,2.35,2.35,0,0,0,1.15,2,10.31,10.31,0,0,0,3.92,1.27l1.65.29a14.91,14.91,0,0,1,7.67,3.33,8.1,8.1,0,0,1,2.65,6.22,9.49,9.49,0,0,1-.91,4.19,9.83,9.83,0,0,1-2.62,3.3,12.33,12.33,0,0,1-4,2.18A16,16,0,0,1,1274.38,1285.82Z" transform="translate(-1006.62 -1202)"/><path class="cls-24" d="M1296.56,1297a13.46,13.46,0,0,1-3-.32,9.64,9.64,0,0,1-2.65-1l1.59-6.49a8.28,8.28,0,0,0,1.53.5,7.29,7.29,0,0,0,1.65.21,5,5,0,0,0,3-.91,6.58,6.58,0,0,0,2.09-2.92l.53-1.36-12.56-30.85h9l7.37,22.06,6.66-22.06h8.73l-12.8,34.09a15.57,15.57,0,0,1-4.51,6.9A10.33,10.33,0,0,1,1296.56,1297Z" transform="translate(-1006.62 -1202)"/></g></g></svg>